<svg width="35" height="35" viewBox="0 0 35 35" fill="none" xmlns="http://www.w3.org/2000/svg">
<path d="M17.8896 34.8701C27.2785 34.8701 34.8896 27.259 34.8896 17.8701C34.8896 8.48128 27.2785 0.870117 17.8896 0.870117C8.50081 0.870117 0.889648 8.48128 0.889648 17.8701C0.889648 27.259 8.50081 34.8701 17.8896 34.8701Z" fill="#8C8985" fill-opacity="0.5"/>
<path d="M14.1997 28.0596H13.1997C13.0689 28.0569 12.9442 28.0031 12.8526 27.9096C12.761 27.8161 12.7097 27.6904 12.7097 27.5596V8.17956C12.7097 8.11521 12.7224 8.05149 12.747 7.99204C12.7716 7.93259 12.8077 7.87858 12.8532 7.83308C12.8987 7.78757 12.9528 7.75148 13.0122 7.72686C13.0717 7.70223 13.1354 7.68956 13.1997 7.68956H14.1997C14.3306 7.68953 14.4563 7.74083 14.5498 7.83245C14.6433 7.92407 14.6971 8.04869 14.6997 8.17956V27.5596C14.6972 27.6914 14.6437 27.8171 14.5504 27.9103C14.4572 28.0035 14.3315 28.057 14.1997 28.0596V28.0596ZM23.0797 27.5596V8.17956C23.0797 8.11521 23.067 8.05149 23.0424 7.99204C23.0178 7.93259 22.9817 7.87858 22.9362 7.83308C22.8907 7.78757 22.8367 7.75148 22.7772 7.72686C22.7178 7.70223 22.6541 7.68956 22.5897 7.68956H21.5897C21.5245 7.68822 21.4597 7.69992 21.3991 7.72394C21.3385 7.74797 21.2833 7.78386 21.2368 7.82949C21.1902 7.87512 21.1532 7.92959 21.1279 7.9897C21.1027 8.04981 21.0897 8.11436 21.0897 8.17956V27.5596C21.0897 27.6922 21.1424 27.8193 21.2362 27.9131C21.3299 28.0069 21.4571 28.0596 21.5897 28.0596H22.5897C22.7206 28.0569 22.8452 28.0031 22.9368 27.9096C23.0284 27.8161 23.0797 27.6904 23.0797 27.5596V27.5596Z" fill="white"/>
</svg>
