<svg width="34" height="34" viewBox="0 0 34 34" fill="none" xmlns="http://www.w3.org/2000/svg">
<path d="M17 34C26.3888 34 34 26.3888 34 17C34 7.61116 26.3888 0 17 0C7.61116 0 0 7.61116 0 17C0 26.3888 7.61116 34 17 34Z" fill="#8C8985" fill-opacity="0.5"/>
<path d="M12.9399 8.84961L22.9399 16.9996L12.9399 25.1496V8.84961M12.2699 6.84961C12.1028 6.84961 11.9426 6.91598 11.8244 7.03413C11.7063 7.15228 11.6399 7.31252 11.6399 7.47961V26.5696C11.6399 26.7367 11.7063 26.8969 11.8244 27.0151C11.9426 27.1332 12.1028 27.1996 12.2699 27.1996C12.4168 27.1986 12.5585 27.1454 12.6699 27.0496L24.3499 17.4896C24.4266 17.4308 24.4888 17.3551 24.5316 17.2684C24.5744 17.1817 24.5966 17.0863 24.5966 16.9896C24.5966 16.8929 24.5744 16.7975 24.5316 16.7108C24.4888 16.6241 24.4266 16.5484 24.3499 16.4896L12.6699 6.99961C12.5585 6.9038 12.4168 6.85064 12.2699 6.84961V6.84961Z" fill="white"/>
</svg>
