<svg width="34" height="34" viewBox="0 0 34 34" fill="none" xmlns="http://www.w3.org/2000/svg">
<path d="M17 34C26.3888 34 34 26.3888 34 17C34 7.61116 26.3888 0 17 0C7.61116 0 0 7.61116 0 17C0 26.3888 7.61116 34 17 34Z" fill="#8C8985" fill-opacity="0.5"/>
<path d="M18.8701 6.87982C18.7591 6.83098 18.6361 6.81631 18.5168 6.83768C18.3975 6.85905 18.2872 6.9155 18.2001 6.99982L11.3701 12.5998H6.85008C6.76834 12.5983 6.68715 12.6134 6.61149 12.6444C6.53583 12.6753 6.46729 12.7214 6.41008 12.7798C6.29125 12.8957 6.22297 13.0538 6.22008 13.2198V20.7598C6.21852 20.8416 6.23369 20.9227 6.26464 20.9984C6.2956 21.0741 6.34168 21.1426 6.40008 21.1998C6.45679 21.2596 6.52502 21.3072 6.60064 21.3398C6.67626 21.3725 6.75771 21.3895 6.84008 21.3898H11.3601L18.0901 26.9998C18.2023 27.0942 18.3435 27.1471 18.4901 27.1498C18.6572 27.1498 18.8174 27.0834 18.9356 26.9653C19.0537 26.8471 19.1201 26.6869 19.1201 26.5198L19.2301 7.40982C19.223 7.29735 19.1858 7.18886 19.1225 7.09564C19.0592 7.00242 18.972 6.92789 18.8701 6.87982V6.87982ZM18.0001 8.77982L17.9101 25.2098L12.2201 20.4398V13.4398L18.0001 8.77982ZM11.0001 13.7798V20.0598H7.52008V13.7898L11.0001 13.7798ZM27.6801 19.4998C27.7492 19.5635 27.8043 19.6408 27.842 19.7269C27.8797 19.8129 27.8992 19.9059 27.8992 19.9998C27.8992 20.0938 27.8797 20.1867 27.842 20.2728C27.8043 20.3588 27.7492 20.4361 27.6801 20.4998C27.6154 20.5629 27.5387 20.6122 27.4545 20.6449C27.3703 20.6775 27.2803 20.6928 27.1901 20.6898C27.1021 20.6911 27.0149 20.674 26.9339 20.6396C26.853 20.6051 26.7801 20.5541 26.7201 20.4898L24.1901 17.9998L21.6701 20.4898C21.5443 20.6123 21.3756 20.6805 21.2001 20.6798C21.0658 20.6795 20.9347 20.6394 20.8232 20.5647C20.7116 20.4899 20.6247 20.3839 20.5734 20.2598C20.5221 20.1358 20.5086 19.9993 20.5347 19.8676C20.5608 19.7359 20.6253 19.6149 20.7201 19.5198L23.2401 16.9998L20.7501 14.4998C20.6823 14.4354 20.6283 14.3578 20.5915 14.2719C20.5546 14.1859 20.5356 14.0933 20.5356 13.9998C20.5356 13.9063 20.5546 13.8137 20.5915 13.7278C20.6283 13.6418 20.6823 13.5643 20.7501 13.4998C20.8138 13.4307 20.8911 13.3756 20.9771 13.3379C21.0632 13.3002 21.1561 13.2807 21.2501 13.2807C21.344 13.2807 21.437 13.3002 21.523 13.3379C21.6091 13.3756 21.6864 13.4307 21.7501 13.4998L24.2401 16.0198L26.7601 13.5298C26.8201 13.4655 26.893 13.4145 26.9739 13.38C27.0549 13.3456 27.1421 13.3285 27.2301 13.3298C27.3202 13.3298 27.4095 13.3477 27.4926 13.3825C27.5758 13.4173 27.6512 13.4683 27.7145 13.5325C27.7778 13.5967 27.8276 13.6729 27.8612 13.7565C27.8948 13.8402 27.9114 13.9297 27.9101 14.0198C27.9114 14.1078 27.8943 14.195 27.8598 14.276C27.8254 14.3569 27.7744 14.4298 27.7101 14.4898L25.1601 16.9998L27.6801 19.4998Z" fill="white"/>
</svg>
