<svg width="34" height="35" viewBox="0 0 34 35" fill="none" xmlns="http://www.w3.org/2000/svg">
<path d="M17 34.8701C26.3888 34.8701 34 27.259 34 17.8701C34 8.48128 26.3888 0.870117 17 0.870117C7.61116 0.870117 0 8.48128 0 17.8701C0 27.259 7.61116 34.8701 17 34.8701Z" fill="#8C8985" fill-opacity="0.5"/>
<path d="M18.7899 7.75018C18.6822 7.69862 18.5619 7.67876 18.4433 7.69292C18.3247 7.70709 18.2125 7.75469 18.1199 7.83018L11.3199 13.4702H6.80993C6.64285 13.4702 6.4826 13.5366 6.36445 13.6547C6.24631 13.7729 6.17993 13.9331 6.17993 14.1002V21.6402C6.17993 21.8073 6.24631 21.9675 6.36445 22.0857C6.4826 22.2038 6.64285 22.2702 6.80993 22.2702H11.3199L18.1199 27.9102C18.2337 28.0019 18.3739 28.0544 18.5199 28.0602C18.6134 28.0615 18.7058 28.0409 18.7899 28.0002C18.8978 27.949 18.9889 27.8683 19.0526 27.7674C19.1163 27.6665 19.1501 27.5495 19.1499 27.4302V8.31018C19.1494 8.19227 19.1152 8.07696 19.0515 7.97777C18.9877 7.87858 18.897 7.79963 18.7899 7.75018V7.75018ZM17.8999 9.65018V26.0902L12.1799 21.3402V14.4002L17.8999 9.65018ZM10.8999 14.7302V21.0002H7.43993V14.7302H10.8999ZM23.2599 17.8702C23.263 18.3451 23.1717 18.816 22.9915 19.2554C22.8112 19.6948 22.5456 20.0941 22.2099 20.4302C22.0773 20.5628 21.8975 20.6373 21.7099 20.6373C21.5224 20.6373 21.3425 20.5628 21.2099 20.4302C21.0773 20.2976 21.0028 20.1177 21.0028 19.9302C21.0028 19.7426 21.0773 19.5628 21.2099 19.4302C21.6325 19.0049 21.8697 18.4297 21.8697 17.8302C21.8697 17.2307 21.6325 16.6555 21.2099 16.2302C21.1449 16.1686 21.0934 16.0941 21.059 16.0114C21.0245 15.9287 21.0078 15.8397 21.0099 15.7502C21.0096 15.6609 21.0271 15.5724 21.0615 15.49C21.0958 15.4076 21.1463 15.3328 21.2099 15.2702C21.2751 15.2037 21.3529 15.1508 21.4388 15.1147C21.5246 15.0787 21.6168 15.0601 21.7099 15.0601C21.8031 15.0601 21.8953 15.0787 21.9811 15.1147C22.067 15.1508 22.1448 15.2037 22.2099 15.2702C22.5531 15.61 22.8247 16.0151 23.0085 16.4617C23.1922 16.9083 23.2846 17.3873 23.2799 17.8702H23.2599ZM26.1399 17.8702C26.1402 18.7225 25.9725 19.5666 25.6465 20.3542C25.3205 21.1417 24.8425 21.8574 24.2399 22.4602C24.1743 22.5258 24.0963 22.5779 24.0105 22.6135C23.9247 22.649 23.8328 22.6673 23.7399 22.6673C23.6471 22.6673 23.5551 22.649 23.4693 22.6135C23.3835 22.5779 23.3056 22.5258 23.2399 22.4602C23.1743 22.3945 23.1222 22.3166 23.0866 22.2308C23.0511 22.145 23.0328 22.053 23.0328 21.9602C23.0328 21.8673 23.0511 21.7754 23.0866 21.6896C23.1222 21.6038 23.1743 21.5258 23.2399 21.4602C24.2011 20.4966 24.7409 19.1912 24.7409 17.8302C24.7409 16.4692 24.2011 15.1637 23.2399 14.2002C23.1695 14.1373 23.1131 14.0603 23.0745 13.9741C23.0359 13.888 23.0159 13.7946 23.0159 13.7002C23.0159 13.6058 23.0359 13.5124 23.0745 13.4262C23.1131 13.3401 23.1695 13.263 23.2399 13.2002C23.3704 13.0789 23.5418 13.011 23.7199 13.0102C23.8086 13.008 23.8968 13.0237 23.9793 13.0563C24.0618 13.0889 24.1368 13.1379 24.1999 13.2002C24.823 13.8075 25.3176 14.5338 25.6543 15.3361C25.991 16.1384 26.1629 17.0001 26.1599 17.8702H26.1399Z" fill="white"/>
</svg>
